<svg width="1300" height="1300" viewBox="0 0 1300 1300" fill="none" xmlns="http://www.w3.org/2000/svg">
<circle cx="650" cy="650" r="650" fill="#D2DADE"/>
<path d="M640.386 421.951C640.815 421.951 641.245 421.951 641.688 421.951C642.252 423.677 642.252 423.677 642.827 425.437C643.99 429.29 643.99 429.29 646.896 431.651C652.925 432.275 656.361 431.375 661.219 428.014C661.649 427.214 662.078 426.413 662.521 425.589C663.381 425.589 664.24 425.589 665.125 425.589C667.313 429.663 666.663 434.269 666.695 438.752C666.708 439.864 666.721 440.976 666.734 442.122C666.775 445.809 666.807 449.496 666.839 453.183C666.866 455.735 666.894 458.287 666.921 460.839C666.993 467.564 667.058 474.29 667.12 481.015C667.186 487.875 667.258 494.734 667.33 501.593C667.47 515.059 667.602 528.524 667.73 541.99C669.384 540.283 671.034 538.573 672.683 536.862C673.602 535.91 674.522 534.958 675.469 533.977C679.427 529.69 682.774 525.1 686.121 520.392C687.575 518.381 689.029 516.372 690.485 514.363C691.231 513.331 691.977 512.299 692.745 511.236C696.715 505.786 700.776 500.396 704.839 495.005C705.962 493.512 705.962 493.512 707.108 491.989C711.313 486.406 715.548 480.845 719.813 475.302C725.246 476.338 728.86 478.919 733.159 482.046C733.881 482.561 734.603 483.076 735.346 483.607C737.119 484.873 738.883 486.149 740.646 487.427C738.658 494.82 734.226 500.41 729.66 506.6C728.001 508.884 726.343 511.168 724.685 513.453C723.449 515.153 723.449 515.153 722.187 516.887C685.962 565.332 685.962 565.332 672.775 621.637C672.77 622.772 672.765 623.908 672.76 625.078C672.761 626.173 672.763 627.268 672.765 628.396C672.767 629.877 672.767 629.877 672.769 631.388C672.934 634.073 673.441 636.412 674.24 638.991C676.688 637.918 679.128 636.828 681.564 635.732C682.924 635.127 684.283 634.523 685.684 633.899C694.051 629.53 699.058 624.35 704.025 616.938C705.162 615.308 706.303 613.681 707.448 612.055C708.002 611.268 708.556 610.48 709.127 609.669C722.142 591.418 740.153 578.171 762.502 571.166C766.226 569.502 767.192 567.834 769.211 564.497C775.594 554.62 783.07 545.508 790.488 536.29C792.556 533.718 794.612 531.139 796.666 528.558C797.821 527.123 798.978 525.69 800.135 524.257C801.134 523.016 802.133 521.775 803.161 520.496C805.75 517.74 805.75 517.74 809.657 516.527C812.514 518.125 815.012 519.718 817.632 521.605C818.349 522.09 819.065 522.575 819.804 523.075C822.654 525.087 824.955 526.882 826.68 529.827C826.531 533.627 824.621 535.659 822.271 538.731C821.317 540.004 820.364 541.276 819.382 542.587C818.863 543.269 818.344 543.952 817.81 544.655C814.884 548.546 812.074 552.509 809.25 556.464C808.429 557.603 808.429 557.603 807.593 558.765C804.686 562.812 801.886 566.889 799.24 571.09C814.3 570.761 826.124 569.274 839.874 563.176C854.671 556.615 866.2 554.897 882.573 555.328C880.975 556.35 880.975 556.35 879.344 557.393C875.826 559.831 875.826 559.831 875.427 563.038C875.503 563.995 875.578 564.952 875.656 565.937C875.715 566.906 875.773 567.875 875.834 568.874C875.91 569.605 875.985 570.337 876.063 571.09C876.922 571.09 877.782 571.09 878.667 571.09C878.667 571.891 878.667 572.691 878.667 573.515C882.534 572.715 886.401 571.915 890.386 571.09C889.61 574.343 888.662 576.516 885.793 578.593C880.756 581.202 876.682 582.176 870.936 582.306C863.764 582.667 858.465 584.917 852.137 587.838C835.157 595.567 822.056 598.06 803.18 598.468C785.048 598.947 765.781 600.247 751.063 611.103C750.047 611.761 749.032 612.419 747.986 613.097C743.257 617.031 740.016 621.655 736.414 626.487C729.892 635.015 722.931 642.554 714.849 649.828C701.275 662.108 685.502 677.138 684.458 695.908C684.524 696.732 684.589 697.555 684.657 698.404C685.758 697.204 686.859 696.003 687.993 694.767C701.691 682.139 722.851 675.164 741.948 675.063C743.686 675.138 745.424 675.227 747.157 675.366C747.157 676.167 747.157 676.967 747.157 677.791C746.297 677.791 745.438 677.791 744.552 677.791C742.588 683.281 742.09 688.434 744.415 693.833C745.344 695.512 746.31 697.173 747.319 698.811C748.459 700.829 748.459 700.829 748.459 703.254C747.106 703.534 745.753 703.814 744.359 704.102C727.088 707.806 712.041 712.578 701.34 726.519C685.51 750.183 689.473 780.206 690.834 806.833C691.003 810.157 691.159 813.482 691.315 816.806C691.861 828.019 692.62 839.191 693.751 850.366C693.854 851.391 693.958 852.416 694.064 853.473C697.263 883.503 706.384 909.46 730.845 930.06C739.127 935.997 745.737 936.594 755.864 936.581C757.249 936.593 758.635 936.605 760.062 936.618C764.627 936.655 769.192 936.666 773.758 936.677C776.929 936.697 780.1 936.719 783.27 936.743C791.606 936.8 799.941 936.837 808.277 936.868C816.787 936.904 825.296 936.961 833.806 937.016C850.496 937.12 867.186 937.202 883.875 937.269C883.875 939.67 883.875 942.071 883.875 944.544C883.045 944.793 882.214 945.041 881.358 945.297C880.282 945.624 879.206 945.95 878.097 946.287C876.489 946.772 876.489 946.772 874.847 947.267C872.206 947.965 872.206 947.965 870.855 949.394C870.493 951.775 870.493 951.775 870.448 954.547C870.399 955.479 870.35 956.41 870.3 957.37C871.089 961.549 872.821 963.42 876.063 966.369C879.937 967.937 879.937 967.937 884.445 968.794C885.278 968.982 886.111 969.169 886.969 969.362C889.839 970.003 892.716 970.611 895.594 971.219C899.098 971.987 902.599 972.761 906.1 973.538C908.418 974.05 910.738 974.555 913.06 975.053C936.828 980.204 936.828 980.204 942.469 986.982C944.087 991.5 944.467 995.627 943.771 1000.32C941.672 1004.09 939.8 1006.65 936.284 1009.34C928.207 1011.22 918.225 1007.97 910.26 1006.42C853.319 995.387 794.849 988.292 736.74 985.769C734.699 985.666 732.657 985.562 730.616 985.458C707.026 984.333 683.434 984.33 659.82 984.332C655.148 984.332 650.475 984.324 645.803 984.307C620.241 984.218 594.752 984.465 569.219 985.684C568.155 985.735 567.092 985.786 565.996 985.838C546.993 986.767 528.036 988.105 509.121 990.057C508.235 990.148 507.349 990.24 506.436 990.334C505.522 990.428 504.608 990.522 503.667 990.62C502.71 990.717 501.752 990.814 500.766 990.915C473.365 993.71 446.186 997.342 419.032 1001.76C417.082 1002.08 417.082 1002.08 415.093 1002.4C411.386 1003.01 407.681 1003.62 403.976 1004.24C402.885 1004.42 401.794 1004.6 400.67 1004.78C394.123 1005.89 387.719 1007.28 381.271 1008.81C374.46 1009.65 369.878 1009.95 364.263 1006C360.199 1000.75 359.574 995.734 360.438 989.407C362.31 985.286 363.936 982.951 368.27 980.876C376.878 977.704 385.521 975.494 394.536 973.569C395.959 973.258 397.382 972.948 398.847 972.628C427.78 966.369 427.78 966.369 434.657 966.369C438.437 922.838 438.437 922.838 442.062 879.296C442.143 878.298 442.225 877.301 442.308 876.273C443.316 863.821 444.231 851.375 444.695 838.893C444.871 834.38 445.239 830.116 446.375 825.718C448.953 825.718 451.532 825.718 454.188 825.718C454.147 824.141 454.147 824.141 454.105 822.533C454.016 818.592 453.951 814.651 453.902 810.709C453.876 809.011 453.84 807.313 453.795 805.616C453.333 787.864 453.333 787.864 459.396 779.642C461.909 777.189 461.909 777.189 464.442 775.55C465.685 774.711 465.685 774.711 466.954 773.855C476.299 768.993 485.775 769.497 496.18 769.488C497.837 769.458 499.493 769.428 501.2 769.398C511.975 769.367 522.62 769.835 530.926 776.95C537.159 783.329 539.154 788.104 539.078 796.826C539.074 797.653 539.07 798.481 539.066 799.333C539.052 801.965 539.019 804.596 538.986 807.227C538.973 809.016 538.961 810.805 538.95 812.593C538.922 816.968 538.877 821.343 538.823 825.718C541.401 825.718 543.979 825.718 546.636 825.718C549.222 832.942 549.983 839.964 550.542 847.543C556.992 836.31 563.37 825.061 569.338 813.597C571.062 810.327 572.494 807.701 575.282 805.105C580.334 804.582 583.288 804.46 587.651 807C590.435 811.212 589.337 813.663 588.302 818.443C587.281 821.081 586.15 823.684 584.93 826.248C584.591 826.969 584.252 827.689 583.903 828.432C582.803 830.765 581.687 833.091 580.571 835.418C579.805 837.036 579.04 838.655 578.276 840.275C576.729 843.549 575.178 846.821 573.621 850.091C570.367 856.931 567.169 863.794 563.97 870.657C563.437 871.794 562.904 872.931 562.355 874.102C561.862 875.155 561.37 876.208 560.862 877.292C560.438 878.197 560.014 879.102 559.577 880.035C559.173 880.916 558.77 881.798 558.354 882.706C557.874 883.718 557.394 884.729 556.9 885.772C555.77 888.716 555.489 890.549 555.689 893.633C555.743 894.542 555.797 895.45 555.852 896.387C555.926 897.349 556 898.311 556.076 899.302C556.143 900.304 556.21 901.306 556.279 902.339C557.252 920.613 557.252 920.613 560.959 938.482C585.143 922.916 600.306 903.094 606.125 876.113C606.763 872.66 607.309 869.2 607.834 865.731C608.003 864.634 608.172 863.537 608.347 862.407C608.902 858.743 609.431 855.077 609.95 851.408C610.19 849.729 610.19 849.729 610.436 848.017C613.065 828.258 613.314 808.325 613.355 788.439C613.368 784.702 613.408 780.966 613.449 777.229C613.558 758.525 612.515 742.469 601.323 726.292C600.571 725.192 599.819 724.091 599.045 722.957C586.807 711.562 572.272 706.69 555.75 703.254C557.215 699.651 558.645 696.786 560.959 693.554C561.371 691.032 561.371 691.032 561.284 688.325C561.294 686.982 561.294 686.982 561.305 685.611C560.88 681.97 559.695 678.799 558.354 675.366C582.689 676.313 603.271 683.242 620.855 699.617C613.844 676.348 601.834 662.289 583.592 645.648C577.734 640.244 572.377 634.72 567.388 628.609C566.814 627.91 566.241 627.212 565.65 626.492C565.103 625.825 564.555 625.157 563.99 624.469C552.92 611.081 538.081 602.386 519.958 599.456C510.283 598.475 500.447 598.634 490.725 598.564C475.179 598.238 462.16 594.646 448.491 587.914C439.489 583.682 431.795 582.192 421.819 581.392C416.078 580.547 413.666 578.747 409.917 574.728C410.562 572.927 410.562 572.927 411.219 571.09C411.649 571.49 412.078 571.891 412.521 572.303C415.998 572.474 419.454 572.354 422.938 572.303C423.193 570.561 423.434 568.818 423.67 567.074C423.806 566.103 423.942 565.133 424.082 564.133C424.432 561.186 424.432 561.186 422.938 557.753C420.333 556.287 420.333 556.287 417.73 555.328C434.113 554.493 447.547 556.885 462.096 563.929C475.137 570.211 486.475 571.329 501.063 571.09C499.495 568.939 497.92 566.793 496.343 564.649C495.84 563.964 495.338 563.28 494.82 562.575C491.481 558.072 488.024 553.674 484.461 549.322C483.628 548.297 482.795 547.272 481.937 546.216C480.268 544.171 478.586 542.136 476.89 540.111C476.122 539.166 475.354 538.222 474.563 537.249C473.867 536.409 473.172 535.57 472.455 534.705C471.115 532.29 471.115 532.29 471.385 529.695C472.88 526.428 475.207 525.098 478.276 523.045C482.553 520.341 482.553 520.341 485.438 516.527C495.284 520.802 501.979 528.34 508.875 535.927C510.055 537.181 511.237 538.433 512.42 539.683C513.735 541.083 515.049 542.483 516.362 543.885C517.039 544.603 517.715 545.321 518.412 546.061C521.883 549.815 525.068 553.582 527.959 557.743C535.487 568.502 541.686 573.285 554.621 577.726C562.062 580.303 567.896 584.613 573.979 589.278C575.551 590.382 575.551 590.382 577.153 591.509C586.942 598.886 593.318 608.255 600.174 617.98C604.642 624.277 608.459 629.357 615.565 633.232C616.651 633.838 617.737 634.444 618.856 635.069C622.165 636.57 625.042 637.271 628.667 637.778C634.84 626.282 630.629 604.235 626.556 592.38C616.829 569.003 602.014 549.183 586.439 528.895C582.808 524.154 579.21 519.392 575.607 514.633C574.285 512.888 572.962 511.143 571.64 509.399C570.693 508.15 569.747 506.901 568.771 505.615C572.568 501.854 576.501 498.961 581.141 496.142C582.363 495.384 583.585 494.626 584.844 493.845C588.302 492.277 588.302 492.277 590.988 492.215C594.871 494.177 596.777 497.002 599.37 500.31C600.519 501.751 601.671 503.191 602.824 504.629C603.426 505.386 604.028 506.142 604.649 506.922C607.819 510.846 611.121 514.671 614.425 518.498C615.079 519.256 615.732 520.014 616.406 520.796C625.402 531.724 625.402 531.724 635.177 541.99C636.213 535.182 636.68 528.583 636.706 521.713C636.719 520.2 636.719 520.2 636.732 518.656C636.75 516.483 636.766 514.311 636.779 512.138C636.8 508.698 636.83 505.257 636.863 501.817C636.955 492.041 637.034 482.266 637.1 472.49C637.142 466.496 637.195 460.502 637.257 454.508C637.278 452.229 637.294 449.949 637.305 447.67C637.321 444.487 637.352 441.304 637.387 438.12C637.388 437.182 637.389 436.244 637.389 435.278C637.461 430.312 638.006 426.422 640.386 421.951ZM474.516 788.903C471.785 792.63 471.817 794.913 471.908 799.403C471.921 800.72 471.934 802.037 471.948 803.394C471.995 805.059 472.043 806.724 472.091 808.44C472.199 813.741 472.306 819.043 472.417 824.505C488.315 824.505 504.214 824.505 520.594 824.505C520.702 818.979 520.809 813.452 520.92 807.758C520.967 806.018 521.014 804.279 521.063 802.487C521.076 801.117 521.089 799.748 521.103 798.337C521.13 796.934 521.157 795.53 521.185 794.085C520.928 790.513 520.928 790.513 518.495 788.283C512.434 785.621 505.73 786.337 499.146 786.377C496.513 786.387 493.884 786.352 491.251 786.314C489.588 786.314 487.925 786.315 486.211 786.316C484.689 786.314 483.168 786.311 481.6 786.309C477.559 786.659 477.559 786.659 474.516 788.903ZM472.417 860.881C471.81 871.129 471.81 871.129 476.323 880.281C483.138 886.687 483.138 886.687 492.111 888.844C493.346 888.819 494.582 888.794 495.855 888.769C496.304 881.787 496.361 876.546 491.948 870.581C486.12 864.594 480.909 862.268 472.417 860.881ZM509.038 866.64C504.201 871.409 502.554 876.696 502.039 883.161C502.155 886.317 502.155 886.317 503.667 888.769C511.383 888.4 517.553 885.034 523.198 880.281C525.898 875.667 526.088 871.762 525.965 866.564C525.942 865.269 525.918 863.973 525.894 862.638C525.864 861.658 525.834 860.678 525.802 859.668C520.374 859.668 513.525 864.097 509.038 866.64ZM468.511 888.769C470.109 897.581 472.296 903.803 479.904 909.76C485.049 912.248 488.804 912.65 494.552 913.019C495.294 905.387 495.125 900.231 489.975 894.073C485.53 890.239 481.276 889.618 475.347 889.223C473.423 889.087 473.423 889.087 471.461 888.948C470.487 888.889 469.514 888.83 468.511 888.769ZM505.671 895.447C501.743 901.024 501.796 906.532 502.365 913.019C509.003 913.791 513.774 911.289 519.292 908.169C524.319 904.5 526.305 900.408 528.407 894.831C528.737 891.444 528.737 891.444 528.407 888.769C519.97 888.1 511.792 889.564 505.671 895.447Z" fill="#00344D"/>
<path d="M476.323 368.601C497.825 365.853 521.868 379.09 539.563 389.058C540.178 389.509 540.793 389.961 541.427 390.426C541.427 389.602 541.427 391.226 541.427 390.426C540.5 390.151 542.327 390.693 541.427 390.426C546.171 392.451 552.516 398.54 556.401 401.718C557.191 402.356 557.981 402.995 558.794 403.654C567.285 410.607 575.266 417.997 583.094 425.589C584.126 426.572 585.158 427.555 586.222 428.568C587.069 429.411 587.917 430.253 588.79 431.121C589.498 431.823 590.207 432.525 590.937 433.248C592.208 435.289 592.208 435.289 591.956 437.607C590.587 440.909 588.912 441.905 585.789 443.89C584.236 444.901 584.236 444.901 582.651 445.932C581.562 446.621 580.472 447.31 579.35 448.02C577.205 449.39 575.066 450.767 572.931 452.15C571.978 452.755 571.025 453.359 570.043 453.981C567.335 456.002 565.517 458.095 563.562 460.752C560.252 458.833 556.943 456.913 553.634 454.992C552.706 454.455 551.778 453.917 550.821 453.363C548.118 451.793 545.422 450.212 542.729 448.627C541.942 448.17 541.155 447.713 540.344 447.242C535.048 444.092 535.048 444.092 533.777 441.048C533.723 440.348 533.67 439.648 533.614 438.927C533.614 442.403 534.125 444.452 535.278 447.703C535.624 448.698 535.971 449.693 536.328 450.718C536.878 452.271 536.878 452.271 537.439 453.856C539.676 460.172 541.812 466.251 542.729 472.877C541.643 473.336 540.557 473.796 539.438 474.269C533.29 477.322 528.007 481.208 522.519 485.182C518.036 488.341 514.667 490.63 508.875 491.065C502.405 482.724 496.392 474.187 490.74 465.346C489.793 463.875 488.834 462.41 487.866 460.951C472.448 437.69 463.445 410.574 470.249 383.271C473.03 373.2 473.03 373.2 476.323 368.601Z" fill="#00344D"/>
<path d="M766.687 832.993C767.117 843.796 767.546 854.6 767.989 865.731C774.435 866.131 780.88 866.531 787.52 866.943C787.52 855.74 787.52 844.536 787.52 832.993C815.88 832.993 844.239 832.993 873.458 832.993C873.458 835.394 873.458 837.794 873.458 840.268C872.093 840.599 872.093 840.599 870.701 840.936C869.516 841.241 868.331 841.545 867.11 841.859C865.343 842.303 865.343 842.303 863.54 842.755C860.019 843.744 860.019 843.744 857.833 847.543C857.276 850.1 857.276 850.1 857.263 852.848C857.211 853.757 857.159 854.667 857.106 855.604C858.263 860.143 860.328 861.783 864.343 864.518C868.5 865.289 872.567 865.257 876.795 865.2C888.121 865.096 888.121 865.096 892.414 867.928C895.191 871.852 894.984 874.472 894.291 879.068C892.59 882.321 892.59 882.321 889.083 885.131C884.067 886.066 879.093 885.958 873.992 885.915C871.679 885.931 871.679 885.931 869.32 885.948C865.096 885.97 860.873 885.965 856.649 885.945C852.227 885.93 847.805 885.944 843.383 885.954C835.957 885.965 828.532 885.95 821.106 885.921C812.523 885.888 803.941 885.899 795.358 885.932C787.987 885.96 780.616 885.964 773.244 885.948C768.842 885.938 764.441 885.937 760.039 885.957C755.132 885.973 750.227 885.949 745.32 885.915C743.132 885.934 743.132 885.934 740.9 885.953C731.083 885.827 731.083 885.827 726.727 882.278C724.61 878.296 724.138 876.178 725.02 871.793C727.543 868.307 727.543 868.307 731.531 865.731C735.501 865.242 739.272 865.368 743.25 865.731C742.78 865.157 742.31 864.584 741.825 863.993C737.715 858.538 735.735 854.394 736.195 847.671C737.394 842.048 740.846 838.842 745.121 834.963C749.76 832.993 749.76 832.993 766.687 832.993Z" fill="#00344D"/>
<path d="M445.399 607.314C447.649 607.326 449.898 607.337 452.148 607.347C457.603 607.374 463.057 607.415 468.511 607.466C467.869 615.83 466.502 618.481 462 626.866C476.61 626.866 491.219 626.866 506.271 626.866C506.271 633.668 506.271 640.47 506.271 647.479C483.713 648.079 483.713 648.079 460.698 648.691C462.847 651.892 464.995 655.093 467.209 658.391C467.616 663.847 467.616 663.847 467.209 668.091C461.471 668.183 455.733 668.248 449.995 668.291C448.053 668.309 446.111 668.334 444.17 668.366C426.55 668.648 408.197 668.058 392.42 659.907C391.56 659.483 390.7 659.06 389.814 658.624C380.113 653.72 368.422 647.123 363.042 637.778C363.181 634.216 364.332 632.941 366.908 630.281C373.906 624.478 380.584 619.647 389.084 615.953C390.29 615.417 391.497 614.881 392.741 614.329C409.966 607.132 426.88 607.138 445.399 607.314Z" fill="#00344D"/>
<path d="M894.291 400.126C901.941 401.187 901.941 401.187 903.406 402.551C902.91 408.899 901.208 413.272 897.786 418.74C897.35 419.444 896.914 420.148 896.465 420.874C895.076 423.11 893.667 425.334 892.257 427.559C891.346 429.022 890.436 430.486 889.528 431.95C885.876 437.809 882.227 443.655 878.26 449.336C877.776 450.037 877.292 450.738 876.794 451.461C875.459 453.385 874.103 455.296 872.746 457.206C870.619 461.192 870.306 463.633 870.854 468.027C873.634 471.014 875.609 471.577 879.75 472.375C883.849 472.079 883.849 472.079 885.623 469.805C887.377 467.144 888.944 464.443 890.466 461.661C898.021 448.258 898.021 448.258 906.035 445.197C908.197 444.724 910.359 444.25 912.52 443.777C911.243 453.915 907.147 461.308 901.453 469.921C899.799 472.479 898.146 475.036 896.494 477.594C895.678 478.844 894.863 480.094 894.022 481.381C891.897 484.677 889.839 487.998 887.816 491.349C887.241 492.295 886.665 493.241 886.072 494.216C885.018 495.953 883.975 497.695 882.944 499.443C880.049 504.146 877.682 507.294 872.156 509.252C863.098 508.992 856.229 503.826 848.718 499.552C845.281 504.754 841.843 509.955 838.302 515.315C833.067 514.096 830.075 512.507 825.606 509.783C824.324 509.006 823.042 508.229 821.72 507.429C820.747 506.83 819.773 506.231 818.77 505.615C819.596 501.373 821.442 498.533 824.06 495.005C824.773 494.036 825.487 493.067 826.222 492.069C826.771 491.337 827.32 490.606 827.885 489.852C826.945 489.177 826.005 488.502 825.037 487.806C815.338 480.38 815.338 480.38 813.628 475.183C813.536 468.598 816.295 464.851 819.991 459.388C820.65 458.376 821.308 457.364 821.986 456.321C823.315 454.285 824.654 452.255 826.005 450.232C827.642 447.779 829.249 445.313 830.84 442.834C845.706 419.871 845.706 419.871 852.625 415.889C853.914 415.889 855.203 415.889 856.531 415.889C858.462 423.506 857.589 427.22 853.319 433.904C852.687 434.836 852.055 435.768 851.404 436.729C850.159 438.608 848.926 440.495 847.706 442.389C847.152 443.21 846.599 444.031 846.028 444.876C844.55 447.96 844.439 450.133 844.812 453.477C847.467 456.132 849.301 456.982 853.113 457.683C856.869 457.411 856.869 457.411 859.283 454.021C860.262 452.515 861.214 450.993 862.146 449.46C862.677 448.63 863.209 447.799 863.756 446.944C864.985 445.018 866.201 443.085 867.409 441.147C870.342 436.447 873.321 431.773 876.3 427.098C878.639 423.424 880.974 419.747 883.294 416.063C884.586 414.017 884.586 414.017 885.904 411.929C886.673 410.706 887.443 409.484 888.236 408.224C890.113 405.387 892.088 402.748 894.291 400.126Z" fill="#00344D"/>
<path d="M777.104 367.388C781.791 368.077 785.209 369.19 789.26 371.476C790.843 372.362 790.843 372.362 792.457 373.266C793.567 373.902 794.678 374.538 795.822 375.194C796.97 375.845 798.118 376.496 799.301 377.167C806.481 381.264 813.607 385.436 820.643 389.744C821.418 390.214 822.193 390.685 822.992 391.169C827.819 394.18 831.734 397.427 835.698 401.339C831.186 407.341 831.186 407.341 826.583 413.464C821.104 412.188 816.9 410.038 812.098 407.401C806.387 404.255 806.387 404.255 800.542 401.339C793.891 410.556 787.367 419.83 781.01 429.226C787.185 433.187 791.3 435.466 798.833 435.365C799.885 435.354 800.937 435.343 802.022 435.332C802.822 435.318 803.623 435.303 804.448 435.289C802.679 439.847 800.453 443.538 797.449 447.49C796.687 448.504 795.925 449.519 795.14 450.564C792.794 453.399 790.299 455.859 787.521 458.327C786.75 457.756 785.98 457.186 785.186 456.598C777.547 450.984 777.547 450.984 769.292 446.202C768.932 447.091 768.572 447.981 768.201 448.897C766.793 452.029 765.215 454.749 763.3 457.63C762.662 458.596 762.024 459.561 761.367 460.555C760.706 461.545 760.045 462.536 759.363 463.556C758.692 464.569 758.021 465.583 757.329 466.627C755.679 469.117 754.024 471.605 752.365 474.089C747.059 473.041 743.501 470.81 739.018 467.951C736.913 466.617 736.913 466.617 734.766 465.256C733.699 464.57 732.631 463.884 731.531 463.177C733.557 457.56 736.839 453.272 740.564 448.551C741.429 447.438 741.429 447.438 742.312 446.303C744.669 443.277 747.038 440.278 749.521 437.34C751.311 435.375 751.311 435.375 751.062 432.864C744.617 429.663 738.172 426.462 731.531 423.164C732.779 417.354 734.767 413.682 738.123 408.841C738.614 408.117 739.105 407.392 739.611 406.646C740.815 404.871 742.031 403.104 743.25 401.339C747.652 402.705 748.599 403.829 751.469 407.098C755.376 411.383 759.239 414.957 764.083 418.314C764.943 418.314 765.802 418.314 766.687 418.314C770.13 414.369 773.03 410.043 776.046 405.81C776.915 404.626 777.783 403.442 778.678 402.222C779.901 400.516 779.901 400.516 781.148 398.776C781.902 397.729 782.656 396.681 783.432 395.601C783.922 394.694 784.412 393.786 784.917 392.851C783.269 388.248 781.294 387.411 777.023 384.742C775.826 383.987 774.629 383.233 773.396 382.455C772.471 381.884 771.547 381.314 770.594 380.726C772.189 375.812 774.108 371.7 777.104 367.388Z" fill="#00344D"/>
<path d="M753.667 904.531C800.503 904.531 847.339 904.531 895.594 904.531C895.164 908.132 894.735 911.734 894.292 915.444C895.581 917.845 895.581 917.845 896.896 920.294C896.896 921.494 896.896 922.695 896.896 923.931C849.631 923.531 802.365 923.131 753.667 922.719C753.667 916.717 753.667 910.715 753.667 904.531Z" fill="#00344D"/>
<path d="M412.532 424.534C415.915 425.91 416.904 427.431 418.843 430.339C419.511 431.328 420.18 432.316 420.869 433.335C421.551 434.38 422.234 435.425 422.937 436.501C423.605 437.507 424.272 438.513 424.96 439.55C427.037 442.695 429.097 445.85 431.157 449.005C436.749 457.522 442.478 465.636 449.233 473.398C451.583 476.514 451.583 476.514 453.272 480.597C455.689 486.183 460.112 489.747 464.767 493.793C466.43 495.258 468.089 496.73 469.741 498.207C470.839 499.164 470.839 499.164 471.959 500.141C473.718 501.977 473.718 501.977 475.021 505.615C473.23 507.433 473.23 507.433 471.114 509.252C470.255 509.252 469.396 509.252 468.51 509.252C467.866 511.053 467.866 511.053 467.208 512.89C464.522 514.936 464.522 514.936 462 516.527C456.056 514.665 453.545 510.31 450.2 505.69C449.075 504.162 447.948 502.635 446.817 501.11C446.079 500.095 446.079 500.095 445.327 499.06C442.45 495.487 440.587 493.714 435.958 492.277C431.547 492.039 427.139 491.892 422.724 491.761C411.153 490.148 402.532 484.277 393.396 477.803C392.335 477.066 391.273 476.329 390.179 475.569C384.466 471.582 378.894 467.487 373.458 463.177C373.865 460.297 373.865 460.297 374.76 457.114C378.666 454.689 378.666 454.689 381.728 454.879C385.818 456.092 388.668 457.84 392.175 460.145C398.365 464.085 404.593 467.922 410.974 471.588C411.768 472.061 412.562 472.533 413.379 473.019C418.888 476.152 423.144 477.253 429.448 477.727C428.809 476.602 428.809 476.602 428.158 475.455C413.889 450.281 413.889 450.281 408.207 439.305C407.487 437.925 406.767 436.545 406.025 435.123C404.708 431.651 404.708 431.651 404.896 428.9C406.596 425.698 408.669 424.301 412.532 424.534Z" fill="#00344D"/>
<path d="M885.422 602.767C886.63 603.117 887.839 603.467 889.084 603.828C891.239 607.842 890.517 612.305 890.467 616.711C890.461 617.683 890.455 618.655 890.449 619.657C890.434 622.06 890.411 624.463 890.386 626.866C892.377 626.847 892.377 626.847 894.408 626.827C899.325 626.784 904.241 626.756 909.157 626.733C911.287 626.72 913.416 626.704 915.546 626.683C918.603 626.654 921.66 626.64 924.718 626.629C925.673 626.617 926.628 626.604 927.612 626.591C929.962 626.591 932.312 626.718 934.657 626.866C937.261 629.291 937.261 629.291 937.586 633.535C937.261 637.779 937.261 637.779 934.657 640.204C931.625 640.541 931.625 640.541 927.787 640.59C926.353 640.614 924.92 640.638 923.443 640.663C921.89 640.677 920.337 640.691 918.737 640.706C917.151 640.729 915.565 640.753 913.931 640.777C908.85 640.849 903.768 640.906 898.687 640.961C895.248 641.008 891.81 641.055 888.372 641.103C879.929 641.22 871.485 641.323 863.042 641.416C863.042 642.216 863.042 643.017 863.042 643.841C842.417 643.841 821.792 643.841 800.542 643.841C800.542 637.839 800.542 631.837 800.542 625.653C809.205 625.623 817.867 625.601 826.53 625.587C829.472 625.581 832.414 625.572 835.357 625.562C839.604 625.547 843.851 625.54 848.099 625.535C849.398 625.529 850.698 625.522 852.038 625.516C860.125 625.515 868.034 625.964 876.063 626.866C876.002 625.522 875.942 624.178 875.88 622.793C875.831 621.018 875.783 619.244 875.737 617.469C875.694 616.584 875.65 615.7 875.605 614.788C875.52 610.455 875.673 607.97 878.428 604.406C881.271 602.616 881.271 602.616 885.422 602.767Z" fill="#00344D"/>
<path d="M350.021 486.214C368.075 485.552 382.527 487.366 396.896 498.34C397.79 499.944 398.663 501.559 399.5 503.19C400.789 503.59 402.078 503.99 403.406 504.402C412.809 515.055 412.875 526.33 412.521 539.565C395.146 540.022 382.155 539.196 368.25 528.652C357.833 518.539 357.833 518.539 357.833 512.89C356.974 512.89 356.114 512.89 355.229 512.89C351.464 503.78 349.183 496.007 350.021 486.214Z" fill="#00344D"/>
<path d="M951.584 486.215C953.642 491.055 952.065 495.22 950.608 500.007C950.386 500.791 950.164 501.576 949.936 502.384C948.001 508.955 945.216 514.51 941.167 520.165C940.308 520.165 939.449 520.165 938.563 520.165C938.219 520.89 937.875 521.615 937.521 522.363C933.158 529.774 923.573 535.255 915.146 537.974C906.556 540.076 897.904 539.794 889.084 539.565C889.049 536.635 889.023 533.705 889.003 530.774C888.992 529.948 888.981 529.121 888.97 528.269C888.948 524.174 889.011 520.44 890.386 516.527C891.246 516.527 892.105 516.527 892.99 516.527C893.152 515.852 893.313 515.177 893.479 514.481C894.37 511.409 895.583 508.55 896.897 505.615C897.756 505.615 898.615 505.615 899.501 505.615C899.84 504.889 900.179 504.164 900.528 503.417C905.343 495.317 915.192 492.163 924.21 489.625C933.495 487.301 941.954 485.882 951.584 486.215Z" fill="#00344D"/>
<path d="M743.249 291C746.907 305.564 746.99 317.483 739.343 331.013C738.484 331.013 737.624 331.013 736.739 331.013C736.417 331.713 736.095 332.413 735.763 333.135C731.475 340.322 723.658 344.508 715.906 347.988C712.297 348.826 709.229 349.072 705.489 349.201C701.344 339.134 700.959 327.353 704.919 317.145C711.428 304.274 727.395 291 743.249 291Z" fill="#00344D"/>
<path d="M562.26 291C567.387 291.905 571.865 294.015 576.502 296.153C577.293 296.502 578.085 296.85 578.9 297.209C590.649 302.615 597.2 312.081 601.811 323.207C603.589 332.313 602.55 340.304 600.021 349.201C587.368 348.64 578.247 344.511 569.513 335.906C562.037 326.882 559.421 317.958 559.412 306.838C559.396 305.855 559.38 304.871 559.364 303.857C559.361 302.904 559.359 301.952 559.356 300.97C559.351 300.104 559.345 299.238 559.34 298.346C559.704 295.473 560.735 293.501 562.26 291Z" fill="#00344D"/>
<path d="M476.323 689.917C477.182 690.717 478.041 691.517 478.927 692.342C478.294 699.114 474.28 704.144 469.812 709.317C466.313 711.59 466.313 711.59 463.302 712.954C462.699 713.515 462.097 714.077 461.476 714.655C454.143 721.483 446.067 723.004 436.006 723.132C419.182 723.028 419.182 723.028 412.521 721.442C413.731 711.623 419.271 703.356 426.355 696.131C443.29 686.201 457.292 683.103 476.323 689.917Z" fill="#00344D"/>
<path d="M873.988 697.301C883.942 704.127 890.713 712.48 892.99 723.867C877.855 727.661 861.913 728.744 847.723 721.911C844.862 720.258 842.165 718.631 839.605 716.592C839.605 715.792 839.605 714.991 839.605 714.167C838.88 713.942 838.155 713.717 837.408 713.485C832.962 710.911 830.289 707.561 827.886 703.254C827.479 699.996 827.479 699.996 829.188 697.192C841.625 688.264 861.065 690.309 873.988 697.301Z" fill="#00344D"/>
<path d="M755.848 896.43C757.386 896.429 758.923 896.428 760.508 896.427C764.713 896.431 768.916 896.468 773.121 896.519C777.519 896.564 781.917 896.568 786.316 896.577C794.64 896.6 802.963 896.659 811.286 896.732C820.764 896.814 830.242 896.854 839.721 896.89C859.214 896.966 878.706 897.094 898.198 897.256C897.769 900.057 897.339 902.858 896.896 905.744C849.631 905.344 802.365 904.944 753.667 904.531C753.667 910.933 753.667 917.335 753.667 923.932C743.016 924.524 743.016 924.524 738.124 921.81C733.748 917.365 732.808 915.73 732.915 909.533C733.296 905.259 735.306 902.074 738.301 898.838C743.358 895.428 749.86 896.322 755.848 896.43Z" fill="#00344D"/>
<path d="M783.37 711.514C785.212 712.354 787.029 713.24 788.822 714.167C789.912 714.706 791.001 715.245 792.123 715.801C800.837 721.24 806.335 731.408 808.354 740.842C808.607 743.753 808.554 746.404 808.354 749.33C799.483 752.231 786.778 749.858 778.279 746.545C772.339 743.308 767.328 739.619 762.781 734.779C762.207 734.178 761.633 733.576 761.041 732.956C754.917 726.38 753.304 722.934 753.666 714.167C763.724 708.617 772.366 707.106 783.37 711.514Z" fill="#00344D"/>
<path d="M546.88 711.363C550.542 714.167 550.542 714.167 552.088 716.895C551.554 724.193 546.692 730.762 541.427 735.992C540.568 735.992 539.708 735.992 538.823 735.992C538.823 736.792 538.823 737.593 538.823 738.417C527.354 747.808 512.176 751.001 497.156 750.542C496.586 739.39 498.624 730.343 506.271 721.442C517.021 711.253 531.783 704.276 546.88 711.363Z" fill="#00344D"/>
<path d="M545.287 336.938C546.162 337.384 547.036 337.829 547.937 338.288C549.307 338.913 550.676 339.538 552.088 340.183C558.511 345.367 563.475 352.594 566.166 360.113C566.255 362.208 566.277 364.307 566.248 366.403C566.236 367.496 566.224 368.588 566.212 369.714C566.197 370.547 566.182 371.38 566.166 372.238C550.923 373.147 538.272 372.909 526.036 363.054C524.5 361.326 524.5 361.326 524.5 358.901C523.711 358.596 522.922 358.291 522.109 357.977C515.99 354.716 512.136 346.851 510.177 340.713C510.014 337.303 510.014 337.303 510.177 334.65C521.053 331.274 535.059 332.311 545.287 336.938Z" fill="#00344D"/>
<path d="M536.218 674.002C537.202 673.998 538.186 673.993 539.199 673.988C545.691 673.998 551.958 674.282 558.354 675.366C562.365 680.035 563 684.911 562.83 690.736C561.84 695.633 558.951 699.347 555.75 703.254C554.991 702.817 554.232 702.379 553.451 701.928C544.592 697.259 537.223 695.789 527.104 697.192C523.587 698.253 520.339 699.474 517.018 700.981C513.48 702.259 511.343 702.526 507.573 702.042C503.804 700.133 503.804 700.133 500.004 697.571C498.734 696.741 497.463 695.911 496.154 695.055C493.25 692.342 493.25 692.342 492.649 689.145C493.25 686.279 493.25 686.279 496.098 683.702C509.05 675.662 520.928 673.929 536.218 674.002Z" fill="#00344D"/>
<path d="M800.776 679.34C802.926 680.773 804.997 682.306 807.053 683.854C808.342 684.254 809.631 684.654 810.959 685.066C811.221 689.572 811.157 690.853 808.355 694.767C807.495 694.767 806.636 694.767 805.751 694.767C805.751 695.567 805.751 696.367 805.751 697.192C804.032 697.592 802.313 697.992 800.542 698.404C800.542 699.204 800.542 700.005 800.542 700.829C796.737 702.601 794.407 702.398 790.126 702.042C788.045 701.277 785.984 700.463 783.941 699.617C775.158 696.166 767.25 695.828 758.306 699.01C756.775 699.611 755.244 700.211 753.667 700.829C752.378 700.829 751.089 700.829 749.761 700.829C749.331 701.629 748.902 702.43 748.459 703.254C743.837 695.753 740.797 690.159 741.949 681.429C742.808 680.229 743.667 679.028 744.553 677.791C745.412 677.791 746.271 677.791 747.157 677.791C747.587 676.991 748.016 676.191 748.459 675.366C750.178 675.366 751.896 675.366 753.667 675.366C767.966 672.132 787.831 672.276 800.776 679.34Z" fill="#00344D"/>
<path d="M782.312 333.211C784.012 333.235 784.012 333.235 785.745 333.26C788.508 333.303 791.269 333.368 794.031 333.438C793.435 339.846 792.655 344.273 788.904 349.807C788.221 350.845 787.538 351.883 786.834 352.952C786.201 353.715 785.568 354.477 784.916 355.263C784.057 355.263 783.198 355.263 782.312 355.263C782.044 355.938 781.775 356.614 781.498 357.309C776.465 365.193 766.771 369.756 757.573 372.238C751.068 372.9 744.562 372.607 738.041 372.238C737.19 361.532 740.894 352.206 747.929 343.697C756.905 335.013 769.977 332.867 782.312 333.211Z" fill="#00344D"/>
<path d="M667.729 295.85C670.333 295.85 670.333 295.85 673.263 298.275C685.192 309.942 689.008 318.872 688.954 335.034C688.542 339.736 687.509 343.519 685.958 347.988C685.099 347.988 684.24 347.988 683.354 347.988C683.059 348.888 682.763 349.789 682.459 350.716C680.368 354.797 678.384 356.567 674.24 358.901C671.025 358.773 671.025 358.773 667.729 357.688C665.476 355.173 665.476 355.173 663.579 352.005C662.943 350.974 662.306 349.944 661.651 348.883C655.751 337.589 655.035 324.121 658.635 312.015C660.187 308.51 661.837 305.22 663.823 301.913C664.486 300.783 665.149 299.652 665.832 298.488C666.458 297.618 667.084 296.747 667.729 295.85Z" fill="#00344D"/>
<path d="M632.572 297.063C636.487 298.344 637.72 299.397 639.952 302.737C640.932 304.655 640.932 304.655 641.931 306.611C642.594 307.883 643.257 309.156 643.94 310.467C649.577 322.645 647.418 335.739 642.989 347.988C642.13 347.988 641.27 347.988 640.385 347.988C639.955 349.589 639.525 351.189 639.083 352.838C638.223 352.838 637.364 352.838 636.479 352.838C636.049 354.439 635.619 356.039 635.176 357.688C624.657 356.746 624.657 356.746 620.854 352.838C613.136 343.09 615.195 330.331 615.645 318.888C616.505 318.888 617.364 318.888 618.249 318.888C618.303 317.912 618.357 316.937 618.412 315.932C620.482 308.083 625.409 301.62 632.572 297.063Z" fill="#00344D"/>
<path d="M522.048 621.774C527.359 622.028 531.385 623.007 536.382 624.668C537.916 625.161 539.45 625.653 541.03 626.16C545.721 628.251 548.398 630.55 551.844 634.141C552.945 635.241 554.046 636.342 555.18 637.475C562.135 645.489 564.256 653.076 563.563 663.241C556.65 665.952 550.121 666.435 542.729 665.666C538.009 663.848 538.009 663.848 534.917 662.029C534.917 661.228 534.917 660.428 534.917 659.604C534.138 659.49 533.359 659.376 532.557 659.258C526.347 657.368 523.186 650.924 520.238 645.821C516.62 638.342 515.718 631.387 516.688 623.228C517.99 622.016 517.99 622.016 522.048 621.774Z" fill="#00344D"/>
<path d="M788.823 622.016C789.356 631.841 788.367 639.84 783.615 648.691C782.756 648.691 781.896 648.691 781.011 648.691C780.819 649.755 780.819 649.755 780.624 650.841C779.526 654.079 778.061 655.562 775.477 657.936C774.718 658.652 773.96 659.368 773.178 660.106C767.857 664.065 762.968 664.789 756.271 664.757C754.297 664.766 754.297 664.766 752.284 664.776C748.367 664.446 745.499 663.56 741.948 662.029C742.61 650.285 744.751 641.627 753.464 632.758C762.954 625.137 776.512 621.548 788.823 622.016Z" fill="#00344D"/>
<path d="M531.011 438.927C531.87 438.927 532.729 438.927 533.615 438.927C533.695 439.677 533.776 440.427 533.859 441.2C534.208 442.05 534.557 442.901 534.917 443.777C535.84 444.119 536.763 444.461 537.714 444.814C542.223 446.499 545.903 448.948 549.81 451.582C553.872 454.313 557.761 456.866 562.357 458.786C567.276 461.324 569.881 464.465 573.166 468.633C573.751 469.338 574.337 470.043 574.941 470.769C579.188 476.022 579.188 476.022 579.188 480.152C570.562 484.85 570.562 484.85 566.167 486.214C566.167 487.015 566.167 487.815 566.167 488.64C564.878 488.64 563.589 488.64 562.261 488.64C561.831 489.84 561.401 491.04 560.959 492.277C555.7 490.645 553.638 487.332 550.461 483.335C549.879 482.619 549.297 481.903 548.698 481.166C544.578 476.072 541.29 471.874 539.556 465.687C539.223 464.523 538.891 463.358 538.549 462.158C538.21 460.944 537.87 459.73 537.521 458.478C536.847 456.081 536.169 453.684 535.487 451.288C535.19 450.226 534.892 449.163 534.586 448.068C533.595 444.925 532.368 441.947 531.011 438.927Z" fill="#00344D"/>
<path d="M962 554.115C961.552 557.57 960.903 558.792 958.089 561.168C947.599 567.834 938.585 572.732 925.542 571.09C919.952 569.268 914.784 566.974 909.917 563.815C909.917 563.015 909.917 562.215 909.917 561.39C909.057 561.39 908.198 561.39 907.312 561.39C909.545 555.154 915.533 552.177 921.488 549.284C935.737 543.578 948.86 547.798 962 554.115Z" fill="#00344D"/>
<path d="M382.812 551.25C388.412 555.164 388.412 555.164 390.385 557.753C390.467 560.178 390.467 560.178 389.083 562.603C382.57 568.495 375.551 570.234 366.622 570.408C356.534 570.269 349.034 567.353 341.557 561.087C340.59 560.037 340.59 560.037 339.604 558.965C338.745 558.565 337.885 558.165 337 557.753C337 556.552 337 555.352 337 554.115C339.276 553.125 341.555 552.141 343.836 551.16C345.105 550.611 346.374 550.062 347.681 549.497C359.177 544.937 372.205 544.792 382.812 551.25Z" fill="#00344D"/>
<path d="M946.375 586.853C947.234 587.253 948.093 587.653 948.979 588.065C948.979 588.866 948.979 589.666 948.979 590.491C950.187 590.941 950.187 590.941 951.42 591.4C954.675 593.183 955.272 594.63 956.791 597.766C947.247 603.949 939.556 607.086 927.845 605.978C921.352 604.821 918.042 602.349 913.823 597.766C912.829 596.84 911.835 595.915 910.812 594.962C910.086 594.286 909.361 593.611 908.614 592.916C910.209 588.46 911.33 588.131 915.694 586.019C926.631 581.211 935.596 582.372 946.375 586.853Z" fill="#00344D"/>
<path d="M618.25 364.963C629.362 365.973 635.514 370.83 642.491 378.419C646.218 383.195 645.748 388.05 645.675 393.685C645.669 394.536 645.663 395.387 645.657 396.264C645.642 398.359 645.618 400.455 645.593 402.551C636.727 402.42 631.48 400.866 624.699 395.456C617.857 388.448 616.335 380.405 616.637 371.182C616.948 368.601 616.948 368.601 618.25 364.963Z" fill="#00344D"/>
<path d="M381.189 584.807C384.522 586.517 387.476 588.215 390.385 590.49C389.891 593.661 389.383 595.073 386.86 597.32C385.956 597.917 385.051 598.514 384.119 599.13C383.224 599.733 382.33 600.336 381.408 600.958C373.619 605.668 367.049 605.944 357.833 605.041C352.039 603.373 347.236 600.887 342.208 597.766C344.148 593.143 346.878 591.195 351.241 588.444C352.381 587.714 353.521 586.984 354.695 586.232C362.334 581.84 372.904 581.61 381.189 584.807Z" fill="#00344D"/>
<path d="M685.958 367.388C686.796 384.735 686.796 384.735 682.052 391.639C679.273 394.43 676.391 396.868 672.937 398.914C672.078 398.914 671.219 398.914 670.333 398.914C670.333 399.714 670.333 400.514 670.333 401.339C668.407 401.371 666.481 401.395 664.555 401.414C662.946 401.436 662.946 401.436 661.305 401.457C658.614 401.339 658.614 401.339 657.312 400.126C656.268 391.195 657.122 383.453 662.521 375.876C669.126 368.936 675.938 365.236 685.958 367.388Z" fill="#00344D"/>
<path d="M766.688 832.993C773.563 832.993 780.438 832.993 787.521 832.993C787.521 844.197 787.521 855.4 787.521 866.943C784.325 866.968 781.13 866.993 777.837 867.019C776.829 867.03 775.821 867.041 774.783 867.052C772.518 867.061 770.254 867.004 767.99 866.943C766.688 865.731 766.688 865.731 766.54 862.588C766.547 861.223 766.554 859.857 766.561 858.451C766.565 856.978 766.569 855.505 766.573 853.987C766.584 852.436 766.595 850.884 766.606 849.286C766.612 847.73 766.618 846.174 766.624 844.571C766.64 840.712 766.663 836.852 766.688 832.993Z" fill="#00344D"/>
<path d="M714.604 379.513C715.136 389.655 714.942 396.484 707.85 404.597C701.421 409.52 695.721 412.621 687.261 412.251C687.589 393.996 687.589 393.996 695.073 386.789C701.238 382.323 706.65 379.513 714.604 379.513Z" fill="#00344D"/>
<path d="M588.302 379.513C596.045 379.964 601.816 382.116 607.833 386.789C607.833 387.589 607.833 388.389 607.833 389.214C608.693 389.214 609.552 389.214 610.438 389.214C614.824 396.85 615.828 402.407 615.646 411.039C610.73 412.5 607.561 411.835 602.752 410.001C596.655 406.904 592.235 402.493 589.035 396.792C587.963 391.026 588.101 385.348 588.302 379.513Z" fill="#00344D"/>
<path d="M525.802 859.668C526.565 875.923 526.565 875.923 521.896 881.493C516.261 885.733 511 888.256 503.667 888.769C501.243 884.255 502.649 879.034 503.667 874.218C507.56 866.968 512.947 863.408 521.001 860.578C524.5 859.668 524.5 859.668 525.802 859.668Z" fill="#00344D"/>
<path d="M472.416 860.881C482.026 863.194 489.733 866.526 495.121 874.597C496.185 879.33 496.056 883.953 495.853 888.769C488.909 889.384 485.617 887.976 480.228 883.919C474.56 878.484 472.228 874.33 472.335 866.716C472.346 865.624 472.358 864.531 472.37 863.405C472.385 862.572 472.4 861.739 472.416 860.881Z" fill="#00344D"/>
<path d="M528.406 888.769C527.717 895.05 526.467 900.18 523.197 905.744C516.745 910.577 510.712 913.463 502.364 913.019C501.55 905.745 502.175 900.49 506.769 894.424C512.668 888.771 520.374 888.301 528.406 888.769Z" fill="#00344D"/>
<path d="M468.511 888.769C484.026 889.283 484.026 889.283 490.646 894.831C495.774 900.243 494.937 906.196 494.552 913.019C486.947 912.53 482.342 911.67 476.323 906.956C471.265 901.33 469.791 895.83 468.511 888.769Z" fill="#00344D"/>
<path d="M579.188 478.939C583.877 483.063 587.405 487.247 590.906 492.277C587.494 494.307 584.074 496.324 580.652 498.34C579.681 498.918 578.709 499.496 577.707 500.092C576.31 500.913 576.31 500.913 574.885 501.75C574.025 502.258 573.166 502.766 572.281 503.289C570.073 504.402 570.073 504.402 567.469 504.402C565.505 501.75 565.505 501.75 563.4 498.34C562.698 497.214 561.997 496.089 561.274 494.929C560.74 494.054 560.206 493.179 559.656 492.277C560.516 491.077 561.375 489.876 562.26 488.639C563.549 488.639 564.839 488.639 566.167 488.639C566.167 487.839 566.167 487.039 566.167 486.214C568.023 484.694 568.023 484.694 570.48 483.107C571.28 482.581 572.081 482.054 572.906 481.511C575.281 480.152 575.281 480.152 579.188 478.939Z" fill="#00344D"/>
<path d="M730.229 463.177C735.384 464.914 739.717 467.216 744.308 469.997C745.578 470.763 746.849 471.529 748.158 472.318C749.116 472.903 750.075 473.487 751.062 474.089C748.819 479.742 745.796 483.83 741.948 488.64C734.905 484.312 727.95 479.907 721.114 475.302C722.387 473.507 723.663 471.714 724.939 469.921C725.649 468.923 726.359 467.924 727.091 466.895C728.927 464.389 728.927 464.389 730.229 463.177Z" fill="#00344D"/>
<path d="M816.167 505.615C822.357 506.215 826.001 507.702 830.978 511.147C832.685 512.312 832.685 512.312 834.427 513.501C835.276 514.099 836.125 514.698 837 515.315C834.347 520.503 831.381 525.152 827.886 529.865C821.029 525.736 814.513 521.527 808.354 516.527C810.933 512.926 813.511 509.325 816.167 505.615Z" fill="#00344D"/>
<path d="M473.718 505.615C477.899 507.29 480.293 509.16 483.159 512.435C483.837 513.201 484.515 513.967 485.213 514.756C485.969 515.633 485.969 515.633 486.739 516.527C483.193 521.15 479.483 524.181 474.481 527.303C472.211 528.704 472.211 528.704 469.812 531.077C466.375 526.676 462.937 522.275 459.396 517.74C462.726 514.638 465.917 511.762 469.487 508.949C470.286 508.318 471.085 507.686 471.908 507.036C472.505 506.567 473.103 506.098 473.718 505.615Z" fill="#00344D"/>
<path d="M653.732 413.615C657.312 414.676 657.312 414.676 659.917 415.889C659.917 416.689 659.917 417.489 659.917 418.314C660.776 418.314 661.635 418.314 662.521 418.314C663.38 420.715 664.239 423.115 665.125 425.589C664.265 425.589 663.406 425.589 662.521 425.589C662.198 426.339 661.876 427.089 661.544 427.862C659.562 431 658.396 431.719 654.708 432.864C650.021 433.41 647.783 433.407 643.803 430.969C640.819 426.801 640.762 424.438 641.687 419.526C645.639 415.321 647.617 413.396 653.732 413.615Z" fill="#00344D"/>
<path d="M886.154 556.01C889.083 557.753 889.083 557.753 891.688 561.39C892.023 564.657 891.803 567.799 891.688 571.09C887.258 573.629 883.806 573.733 878.667 573.515C878.667 572.715 878.667 571.915 878.667 571.09C877.807 571.09 876.948 571.09 876.063 571.09C874 567.25 874.213 564.403 874.76 560.178C878.686 556.692 880.687 554.968 886.154 556.01Z" fill="#00344D"/>
<path d="M419.763 556.237C422.937 557.753 422.937 557.753 425.541 561.39C426.142 565.774 426.133 567.861 423.426 571.545C419.485 574.056 417.21 573.98 412.521 573.515C411.232 573.115 409.943 572.715 408.614 572.303C408.005 562.471 408.005 562.471 410.323 558.359C413.611 555.638 415.53 555.083 419.763 556.237Z" fill="#00344D"/>
<path d="M877.364 654.754C879.507 654.721 881.65 654.697 883.793 654.678C884.987 654.664 886.18 654.65 887.41 654.635C890.385 654.754 890.385 654.754 891.687 655.966C891.998 658.609 891.998 658.609 892.094 661.877C892.143 662.949 892.192 664.022 892.242 665.126C891.687 668.091 891.687 668.091 889.317 670.317C885.363 672.284 882.902 671.568 878.667 670.516C877.364 669.304 877.364 669.304 877.237 666.003C877.252 664.666 877.268 663.33 877.283 661.953C877.295 660.613 877.307 659.274 877.319 657.894C877.334 656.858 877.349 655.821 877.364 654.754Z" fill="#00344D"/>
<path d="M915.125 654.754C919.422 654.754 923.719 654.754 928.146 654.754C928.251 657.127 928.327 659.502 928.39 661.877C928.435 663.199 928.48 664.522 928.527 665.884C928.401 667.013 928.275 668.141 928.146 669.304C924.239 671.729 924.239 671.729 920.903 671.426C917.729 670.516 917.729 670.516 915.125 668.091C914.87 664.937 914.87 664.937 914.962 661.271C914.986 660.055 915.009 658.839 915.033 657.586C915.063 656.651 915.094 655.717 915.125 654.754Z" fill="#00344D"/>
</svg>
